<svg width="40" height="40" viewBox="0 0 40 40" fill="none" xmlns="http://www.w3.org/2000/svg">
<path d="M30 33.3333C31.7682 33.3333 33.4638 32.6309 34.7141 31.3807C35.9643 30.1304 36.6667 28.4347 36.6667 26.6666C36.6667 24.8985 35.9643 23.2028 34.7141 21.9526C33.4638 20.7023 31.7682 20 30 20C28.8263 20.0069 27.6756 20.3268 26.6667 20.9266V18.3333C26.6694 16.124 27.5482 14.0059 29.1104 12.4437C30.6726 10.8814 32.7907 10.0026 35 9.99996C35.4421 9.99996 35.866 9.82436 36.1786 9.5118C36.4911 9.19924 36.6667 8.77532 36.6667 8.33329C36.6667 7.89127 36.4911 7.46734 36.1786 7.15478C35.866 6.84222 35.4421 6.66663 35 6.66663C31.9069 6.67015 28.9415 7.90045 26.7544 10.0876C24.5672 12.2748 23.3369 15.2402 23.3334 18.3333V26.6666C23.3334 28.4347 24.0358 30.1304 25.286 31.3807C26.5362 32.6309 28.2319 33.3333 30 33.3333ZM30 23.3333C30.6593 23.3333 31.3038 23.5288 31.8519 23.8951C32.4001 24.2613 32.8273 24.7819 33.0796 25.391C33.3319 26.0001 33.3979 26.6703 33.2693 27.3169C33.1407 27.9635 32.8232 28.5575 32.3571 29.0236C31.8909 29.4898 31.2969 29.8073 30.6503 29.9359C30.0037 30.0645 29.3335 29.9985 28.7244 29.7462C28.1153 29.4939 27.5947 29.0667 27.2285 28.5185C26.8622 27.9704 26.6667 27.3259 26.6667 26.6666C26.6667 25.7826 27.0179 24.9347 27.643 24.3096C28.2681 23.6845 29.116 23.3333 30 23.3333ZM15 9.99996C15.4421 9.99996 15.866 9.82436 16.1786 9.5118C16.4911 9.19924 16.6667 8.77532 16.6667 8.33329C16.6667 7.89127 16.4911 7.46734 16.1786 7.15478C15.866 6.84222 15.4421 6.66663 15 6.66663C11.9069 6.67015 8.94152 7.90045 6.75436 10.0876C4.5672 12.2748 3.3369 15.2402 3.33337 18.3333V26.6666C3.33337 27.9852 3.72437 29.2741 4.45691 30.3704C5.18945 31.4668 6.23064 32.3212 7.44882 32.8258C8.66699 33.3304 10.0074 33.4624 11.3006 33.2052C12.5939 32.948 13.7817 32.313 14.7141 31.3807C15.6464 30.4483 16.2814 29.2604 16.5386 27.9672C16.7958 26.674 16.6638 25.3336 16.1592 24.1154C15.6547 22.8972 14.8002 21.856 13.7038 21.1235C12.6075 20.391 11.3186 20 10 20C8.82629 20.0069 7.67562 20.3268 6.66671 20.9266V18.3333C6.66935 16.124 7.54818 14.0059 9.11041 12.4437C10.6726 10.8814 12.7907 10.0026 15 9.99996ZM10 23.3333C10.6593 23.3333 11.3038 23.5288 11.8519 23.8951C12.4001 24.2613 12.8273 24.7819 13.0796 25.391C13.3319 26.0001 13.3979 26.6703 13.2693 27.3169C13.1407 27.9635 12.8232 28.5575 12.3571 29.0236C11.8909 29.4898 11.2969 29.8073 10.6503 29.9359C10.0037 30.0645 9.33352 29.9985 8.72443 29.7462C8.11534 29.4939 7.59475 29.0667 7.22848 28.5185C6.8622 27.9704 6.66671 27.3259 6.66671 26.6666C6.66671 25.7826 7.0179 24.9347 7.64302 24.3096C8.26814 23.6845 9.11599 23.3333 10 23.3333Z" fill="#0DFF85"/>
</svg>
